<?xml version="1.0" encoding="UTF-8" standalone="no"?>
<!-- Created with Inkscape (http://www.inkscape.org/) -->

<svg
   width="128"
   height="128"
   viewBox="0 0 32 32"
   version="1.1"
   id="svg1"
   xml:space="preserve"
   inkscape:version="1.3 (0e150ed6c4, 2023-07-21)"
   sodipodi:docname="icon.svg"
   xmlns:inkscape="http://www.inkscape.org/namespaces/inkscape"
   xmlns:sodipodi="http://sodipodi.sourceforge.net/DTD/sodipodi-0.dtd"
   xmlns:xlink="http://www.w3.org/1999/xlink"
   xmlns="http://www.w3.org/2000/svg"
   xmlns:svg="http://www.w3.org/2000/svg"><sodipodi:namedview
     id="namedview1"
     pagecolor="#505050"
     bordercolor="#ffffff"
     borderopacity="1"
     inkscape:showpageshadow="0"
     inkscape:pageopacity="0"
     inkscape:pagecheckerboard="1"
     inkscape:deskcolor="#505050"
     inkscape:document-units="mm"
     showguides="true"
     inkscape:lockguides="true"
     showgrid="true"
     inkscape:zoom="10.407728"
     inkscape:cx="68.170498"
     inkscape:cy="67.305756"
     inkscape:window-width="2560"
     inkscape:window-height="1369"
     inkscape:window-x="1912"
     inkscape:window-y="304"
     inkscape:window-maximized="1"
     inkscape:current-layer="layer1"
     inkscape:export-bgcolor="#ffffff00"><sodipodi:guide
       position="16,24"
       orientation="-1,0"
       id="guide7"
       inkscape:locked="true"
       inkscape:label=""
       inkscape:color="rgb(0,134,229)" /><sodipodi:guide
       position="8,16"
       orientation="0,1"
       id="guide8"
       inkscape:locked="true"
       inkscape:label=""
       inkscape:color="rgb(0,134,229)" /><inkscape:grid
       id="grid8"
       units="px"
       originx="0"
       originy="0"
       spacingx="1"
       spacingy="1"
       empcolor="#0099e5"
       empopacity="0.30196078"
       color="#0099e5"
       opacity="0.14901961"
       empspacing="8"
       dotted="true"
       gridanglex="30"
       gridanglez="30"
       visible="true"
       snapvisiblegridlinesonly="true" /></sodipodi:namedview><defs
     id="defs1"><linearGradient
       id="linearGradient6"
       inkscape:collect="always"><stop
         style="stop-color:#eaeaea;stop-opacity:1;"
         offset="0.2394958"
         id="stop6" /><stop
         style="stop-color:#757575;stop-opacity:1;"
         offset="1"
         id="stop7" /></linearGradient><linearGradient
       id="linearGradient1"
       inkscape:collect="always"><stop
         style="stop-color:#000000;stop-opacity:1;"
         offset="0"
         id="stop1" /><stop
         style="stop-color:#000000;stop-opacity:0;"
         offset="1"
         id="stop2" /></linearGradient><linearGradient
       inkscape:collect="always"
       xlink:href="#linearGradient1"
       id="linearGradient2"
       x1="7.6549006"
       y1="20.173412"
       x2="24.233469"
       y2="6.8513474"
       gradientUnits="userSpaceOnUse" /><radialGradient
       inkscape:collect="always"
       xlink:href="#linearGradient6"
       id="radialGradient7"
       cx="16"
       cy="16"
       fx="16"
       fy="16"
       r="16"
       gradientUnits="userSpaceOnUse"
       gradientTransform="matrix(0.7482398,0,0,0.74823973,4.0281633,4.0281626)" /><linearGradient
       inkscape:collect="always"
       xlink:href="#linearGradient1"
       id="linearGradient8"
       gradientUnits="userSpaceOnUse"
       x1="7.6549006"
       y1="20.173412"
       x2="24.233469"
       y2="6.8513474" /></defs><g
     inkscape:label="Ebene 1"
     inkscape:groupmode="layer"
     id="layer1"
     style="fill-opacity:1;fill:url(#linearGradient2)"><circle
       style="fill:url(#radialGradient7);stroke:#ffffff;stroke-width:1.22834646;stroke-dasharray:none;stroke-opacity:1;paint-order:markers stroke fill"
       id="path6"
       cx="15.999999"
       cy="16.000002"
       inkscape:label="Background"
       r="11.971836" /><g
       id="g10"
       transform="matrix(0.001465,0,0,-0.00146977,17.660598,22.424925)"
       style="fill:url(#linearGradient8);stroke:none"
       inkscape:label="Globe"><path
         d="M 1.73047,2975.51 C 10.2344,3392.2 106.613,3772.05 279.527,4109.37 c 172.914,337.33 402.52,623.62 680.317,853.23 277.796,229.6 589.606,411.02 924.096,530.08 331.65,119.05 666.14,181.41 986.45,181.41 348.66,0 694.49,-68.03 1026.15,-192.75 331.65,-127.56 634.96,-323.15 901.41,-566.93 266.46,-243.78 481.89,-544.25 632.13,-890.08 153.07,-345.83 238.11,-728.5 240.94,-1142.36 0,-581.1 -130.39,-1094.17 -391.18,-1527.88 C 5016.22,914.723 4661.89,577.402 4233.86,350.629 3802.99,123.859 3338.11,4.80469 2853.39,4.80469 2516.06,4.80469 2178.74,72.8359 1841.42,197.559 1504.09,330.789 1192.29,523.543 911.652,775.828 633.859,1030.95 409.922,1351.26 251.18,1722.6 86.7734,2093.94 1.73047,2513.46 1.73047,2975.51 Z M 1566.46,4222.76 c -102.05,42.52 -192.76,87.87 -277.8,121.88 -85.04,39.69 -161.57,82.21 -223.94,113.39 -68.029,39.69 -121.884,82.21 -161.572,119.06 C 534.645,4194.41 313.543,3658.66 254.016,2975.51 H 1280.16 c 8.5,215.44 42.52,445.04 96.38,685.99 53.85,240.94 121.89,430.86 189.92,561.26 z m 527.24,1080 C 1926.46,5260.24 1739.37,5189.37 1555.12,5092.99 1365.2,4990.95 1209.29,4877.56 1090.23,4750 c 68.04,-68.03 252.29,-167.24 544.26,-303.3 113.39,303.3 269.29,589.6 459.21,856.06 z m 351.5,76.53 c -240.95,-320.31 -439.37,-671.81 -586.77,-1034.65 104.88,-36.84 252.28,-79.36 430.86,-113.38 175.75,-36.85 320.32,-59.53 411.03,-59.53 v 1218.9 c -116.23,0 -206.93,-2.83 -255.12,-11.34 z m 255.12,-1459.84 c -235.28,0 -544.26,76.53 -924.1,223.94 -172.91,-413.86 -260.79,-805.04 -260.79,-1167.88 h 1184.89 z m 0,-1216.06 H 1515.43 c 0,-133.23 31.18,-331.66 87.88,-589.61 59.53,-260.79 127.56,-447.87 189.92,-555.59 371.34,141.73 677.48,215.43 907.09,215.43 z m -1420.16,0 H 271.023 c 0,-147.41 22.676,-314.65 65.196,-496.07 39.687,-187.08 116.222,-377 209.765,-569.76 93.543,-195.59 215.434,-368.51 357.164,-510.24 65.2,36.85 133.232,76.54 189.922,104.88 65.2,34.02 144.57,76.54 232.44,119.06 93.54,42.52 170.08,82.2 229.61,107.72 -93.55,263.62 -164.41,487.56 -206.93,663.31 -42.52,178.58 -68.03,374.17 -68.03,581.1 z M 2700.32,1558.19 C 2249.61,1475.98 1966.14,1405.12 1858.43,1351.26 2017.16,954.41 2215.59,594.41 2445.2,282.598 L 2700.32,265.59 Z M 1634.49,1252.05 C 1464.41,1178.35 1282.99,1070.63 1090.23,940.238 1274.49,790 1438.9,670.945 1583.46,585.906 1728.03,503.699 1903.78,427.164 2110.71,367.637 1991.65,529.211 1832.91,824.016 1634.49,1252.05 Z M 3227.56,282.598 c 144.57,178.582 337.32,541.418 578.27,1071.492 -133.23,51.03 -260.79,93.55 -365.67,119.06 -104.88,25.51 -266.46,51.02 -467.72,68.03 V 265.59 Z m 1346.46,657.64 c -59.53,51.024 -249.45,161.572 -552.76,311.812 -34.01,-82.21 -85.04,-209.76 -147.4,-365.671 -68.03,-155.906 -167.25,-325.984 -294.81,-501.734 408.2,87.875 742.68,277.796 994.97,555.593 z m 827.71,1763.152 h -986.45 c 0,-311.82 -102.05,-720 -300.48,-1227.41 85.04,-45.35 206.93,-107.71 354.33,-181.41 150.24,-73.7 252.29,-133.23 300.48,-167.25 167.24,164.41 320.31,399.69 442.2,700.16 124.73,300.47 189.92,595.28 189.92,875.91 z m -1252.91,0 H 2972.44 v -929.77 c 116.22,0 280.63,-25.51 476.22,-68.03 192.76,-48.19 345.83,-99.21 442.21,-147.4 170.08,428.03 257.95,816.38 257.95,1145.2 z M 2972.44,3919.45 v -943.94 h 1176.38 c 0,184.26 -31.18,408.19 -87.87,657.64 -59.53,249.45 -119.06,422.36 -170.08,510.24 -374.18,-147.41 -683.16,-223.94 -918.43,-223.94 z m 1782.99,657.64 c -136.06,-102.05 -354.33,-218.27 -640.63,-354.33 85.04,-201.26 150.24,-422.37 201.26,-649.14 51.03,-226.77 82.21,-430.86 82.21,-598.11 h 1003.46 c 0,172.92 -31.18,362.84 -82.2,564.1 -48.19,201.26 -130.4,399.68 -226.77,578.27 -96.38,175.74 -209.77,331.65 -337.33,459.21 z M 4574.02,4750 c -320.32,269.29 -671.82,459.21 -1031.82,569.77 192.76,-243.79 360,-544.26 496.07,-890.09 39.68,17.02 96.37,51.03 170.08,87.88 73.7,39.69 147.4,82.21 206.93,113.39 62.36,39.68 116.22,82.2 158.74,119.05 z m -1363.47,629.29 c -53.86,8.51 -138.9,11.34 -238.11,11.34 v -1218.9 c 396.85,25.52 677.48,87.88 833.39,189.92 -164.41,396.85 -365.67,739.85 -595.28,1017.64"
         style="opacity:1;fill:#000000;fill-opacity:1;fill-rule:evenodd;stroke:none;stroke-width:42.7999;stroke-dasharray:none;stroke-opacity:1"
         id="path12"
         inkscape:label="Fill" /></g><g
       style="fill:#000000;stroke:none"
       id="g8"
       transform="matrix(0.09070665,0.02169312,-0.01993816,0.09869074,-14.154,-18.550965)"
       inkscape:label="Arrow"><path
         id="XMLID_6_"
         d="m 435.83776,161.27676 c -4.0168,-0.30335 -7.51875,2.70731 -7.82217,6.72479 l -1.818,24.09506 c -21.11591,-20.18233 -53.80867,-25.181 -80.51606,-10.1101 -19.65799,11.09334 -32.51443,31.16258 -34.38929,53.68471 -0.33389,4.01484 2.64948,7.54026 6.66395,7.87448 4.01484,0.3339 7.54026,-2.64948 7.87378,-6.664 1.47364,-17.7017 11.57477,-33.47254 27.02072,-42.18948 21.10003,-11.90662 46.95567,-7.86995 63.53554,8.20949 l -26.63136,-2.00899 c -4.01648,-0.30299 -7.51912,2.70763 -7.82184,6.72516 -0.30305,4.01716 2.70762,7.51913 6.72478,7.82217 l 42.84951,3.23243 c 2.00858,0.15152 3.88829,-0.52564 5.30354,-1.74234 1.41523,-1.2167 2.3671,-2.97387 2.51862,-4.98245 l 3.23264,-42.84776 c 0.30379,-4.0178 -2.7072,-7.52013 -6.72436,-7.82317 z"
         style="stroke:none;stroke-width:1.29662;stroke-dasharray:none;stroke-opacity:1;paint-order:stroke markers fill"
         inkscape:label="Fill" /></g><g
       style="fill:#000000;stroke:none"
       id="g9"
       transform="matrix(0.02195177,0,0,0.02201866,5.9589263,14.083729)"
       inkscape:label="Key"><g
         id="g1"
         style="stroke:none">&#10;	<path
   d="M 301.689,53.505 H 75.651 c -10.876,0 -19.725,8.843 -19.725,19.718 v 230.911 c 0,10.866 8.843,19.715 19.725,19.715 H 301.69 c 10.873,0 19.722,-8.843 19.722,-19.715 V 73.223 c -0.006,-10.875 -8.85,-19.718 -19.723,-19.718 z m -112.382,58.846 h -38.696 v -12.344 h -37.637 v 20.413 l 61.429,33.24 c 9.936,5.373 14.904,12.596 14.904,21.668 v 20.992 c 0,7.578 -3.861,14.166 -11.565,19.77 -7.716,5.604 -16.58,8.404 -26.605,8.404 h -38.163 c -10.114,0 -18.958,-2.779 -26.538,-8.361 -7.588,-5.562 -11.369,-12.136 -11.369,-19.72 V 183.97 h 38.422 v 12.344 h 37.778 v -21.29 L 90.219,142.767 C 80.115,137.393 75.062,130.102 75.062,120.904 v -20.99 c 0,-7.516 3.809,-14.077 11.438,-19.68 7.625,-5.603 16.489,-8.405 26.593,-8.405 h 38.04 c 10.025,0 18.889,2.818 26.605,8.457 7.705,5.637 11.565,12.214 11.565,19.727 v 12.339 h 0.004 z M 338.677,0 H 38.662 C 19.094,0 3.226,15.869 3.226,35.439 v 306.464 c 0,19.573 15.869,35.439 35.437,35.439 h 300.02 c 19.568,0 35.436,-15.866 35.436,-35.439 V 35.439 C 374.117,15.869 358.25,0 338.677,0 Z m -3.296,304.122 c 0,18.572 -15.113,33.691 -33.691,33.691 H 75.651 c -18.576,0 -33.695,-15.114 -33.695,-33.691 V 73.223 c 0,-18.569 15.114,-33.688 33.695,-33.688 H 301.69 c 18.572,0 33.691,15.114 33.691,33.688 z"
   id="path1"
   style="stroke:none;stroke-width:2.85665;stroke-dasharray:none;stroke-opacity:1" />&#10;</g></g></g></svg>
